<?xml version="1.0" encoding="UTF-8"?>
<svg xmlns="http://www.w3.org/2000/svg" viewBox="0 0 24 24" class="w-6 h-6">
  <style>
    @keyframes spin {
      0% { transform: rotate(0deg); }
      100% { transform: rotate(360deg); }
    }
    @keyframes pulse {
      0% { transform: scale(1); opacity: 0.8; }
      50% { transform: scale(1.1); opacity: 1; }
      100% { transform: scale(1); opacity: 0.8; }
    }
    .cache-box {
      fill: currentColor;
      transform-origin: center;
      opacity: 0.8;
      transition: all 0.3s ease;
    }
    .arrow {
      fill: currentColor;
      transform-origin: center;
    }
    svg:hover .cache-box {
      opacity: 1;
      animation: pulse 2s infinite;
    }
    svg:hover .arrow {
      animation: spin 2s linear infinite;
    }
  </style>
  <rect class="cache-box" x="4" y="4" width="16" height="16" rx="2"/>
  <path class="arrow" d="M12 7v3l4-4-4-4v3c-4.42 0-8 3.58-8 8 0 1.57.46 3.03 1.24 4.26L6.7 14.8c-.45-.83-.7-1.79-.7-2.8 0-3.31 2.69-6 6-6zm6.76 1.74L17.3 9.2c.44.84.7 1.79.7 2.8 0 3.31-2.69 6-6 6v-3l-4 4 4 4v-3c4.42 0 8-3.58 8-8 0-1.57-.46-3.03-1.24-4.26z"/>
</svg>
