<?xml version="1.0" encoding="UTF-8"?>
<svg xmlns="http://www.w3.org/2000/svg" viewBox="0 0 24 24" class="w-6 h-6">
  <style>
    @keyframes gear {
      0% { transform: rotate(0deg); }
      100% { transform: rotate(360deg); }
    }
    @keyframes flash {
      0% { opacity: 0.8; }
      50% { opacity: 1; }
      100% { opacity: 0.8; }
    }
    .gear {
      fill: currentColor;
      transform-origin: center;
      opacity: 0.8;
      transition: all 0.3s ease;
    }
    .dot {
      fill: currentColor;
      transform-origin: center;
    }
    svg:hover .gear {
      opacity: 1;
      animation: gear 4s linear infinite;
    }
    svg:hover .dot {
      animation: flash 1.5s infinite;
    }
  </style>
  <path class="gear" d="M12 8c-2.21 0-4 1.79-4 4s1.79 4 4 4 4-1.79 4-4-1.79-4-4-4zm-7.86 5.14c.23-.72.53-1.39.91-2L3.83 9.92C3.29 10.85 2.89 11.87 2.64 12.94l1.5.26zm1.79-3.79c.46-.59 1.01-1.14 1.6-1.6L6.4 6.26C5.47 6.9 4.67 7.7 4.03 8.63l1.9 1.72zm8.14 8.14c-.59.46-1.14 1.01-1.6 1.6l1.72 1.9c.93-.64 1.73-1.44 2.37-2.37l-2.49-1.13zm3.79-1.79c-.72.23-1.39.53-2 .91l1.22 2.68c.93-.54 1.74-1.24 2.41-2.08l-1.63-1.51zM12 2C6.48 2 2 6.48 2 12s4.48 10 10 10 10-4.48 10-10S17.52 2 12 2zm0 18c-4.41 0-8-3.59-8-8s3.59-8 8-8 8 3.59 8 8-3.59 8-8 8z"/>
  <circle class="dot" cx="12" cy="12" r="2"/>
</svg>
