<svg xmlns="http://www.w3.org/2000/svg" fill="none" viewBox="0 0 24 24" stroke-width="1.5" stroke="currentColor">
  <!-- Cuore con monitor cardiaco per rappresentare la salute del sistema -->
  <path stroke-linecap="round" stroke-linejoin="round" d="M21 8.25c0-2.485-2.099-4.5-4.688-4.5-1.935 0-3.597 1.126-4.312 2.733-.715-1.607-2.377-2.733-4.313-2.733C5.1 3.75 3 5.765 3 8.25c0 7.22 9 12 9 12s9-4.78 9-12z" />
  <!-- Linea del battito cardiaco -->
  <path stroke-linecap="round" stroke-linejoin="round" d="M3.75 13.5l2.25-2.25L7.5 13.5l2.25-2.25L12 13.5l2.25-2.25L16.5 13.5l2.25-2.25L21 13.5" />
  <!-- Piccolo check di conferma -->
  <path stroke-linecap="round" stroke-linejoin="round" d="M9 12l2 2 4-4" />
</svg>
